<?xml version="1.0" encoding="UTF-8"?>
<svg xmlns="http://www.w3.org/2000/svg" xmlns:xlink="http://www.w3.org/1999/xlink" width="29px" height="29px" viewBox="0 0 29 29" version="1.1">
<g id="surface1">
<path style=" stroke:none;fill-rule:nonzero;fill:rgb(91.764706%,17.254902%,3.529412%);fill-opacity:1;" d="M 22.785156 11.335938 C 22.785156 6.753906 17.6875 3.050781 11.394531 3.050781 C 5.097656 3.050781 0 6.753906 0 11.335938 C 0 13.957031 1.683594 16.304688 4.304688 17.824219 C 3.753906 19.167969 3.042969 19.800781 2.410156 20.511719 C 2.234375 20.722656 2.023438 20.914062 2.085938 21.222656 C 2.136719 21.5 2.363281 21.691406 2.605469 21.691406 C 2.621094 21.691406 2.636719 21.691406 2.652344 21.691406 C 3.140625 21.628906 3.609375 21.546875 4.046875 21.433594 C 5.679688 21.011719 7.203125 20.316406 8.542969 19.363281 C 9.449219 19.523438 10.40625 19.621094 11.394531 19.621094 C 17.6875 19.621094 22.785156 15.914062 22.785156 11.335938 Z M 29 15.476562 C 29 12.777344 27.21875 10.378906 24.484375 8.875 C 24.726562 9.667969 24.855469 10.492188 24.855469 11.335938 C 24.855469 14.230469 23.367188 16.902344 20.664062 18.875 C 18.15625 20.6875 14.871094 21.691406 11.394531 21.691406 C 10.921875 21.691406 10.4375 21.660156 9.96875 21.628906 C 11.992188 22.953125 14.679688 23.765625 17.605469 23.765625 C 18.59375 23.765625 19.550781 23.667969 20.457031 23.503906 C 21.796875 24.460938 23.320312 25.15625 24.953125 25.578125 C 25.390625 25.691406 25.859375 25.769531 26.347656 25.835938 C 26.605469 25.867188 26.847656 25.65625 26.914062 25.367188 C 26.976562 25.058594 26.765625 24.863281 26.589844 24.652344 C 25.957031 23.941406 25.246094 23.3125 24.695312 21.96875 C 27.316406 20.445312 29 18.117188 29 15.476562 Z M 29 15.476562 "/>
</g>
</svg>
